<svg width="1161" height="314" viewBox="0 0 1161 314" fill="none" xmlns="http://www.w3.org/2000/svg">
<path d="M830.58 238.696L890.08 146.296L837.93 64.3957H900.23L921.23 97.9957C922.397 99.8624 923.563 102.312 924.73 105.346C926.13 108.146 927.413 110.946 928.58 113.746C930.447 111.179 932.313 108.029 934.18 104.296C936.047 100.562 937.563 97.529 938.73 95.1957C941.997 88.6623 944.563 82.7124 946.43 77.3457C948.297 71.979 949.463 67.6624 949.93 64.3957H1007.33C1006.63 68.829 1004.88 74.6624 1002.08 81.8957C999.28 89.129 995.197 97.6457 989.83 107.446C985.863 114.679 981.197 121.562 975.83 128.096C970.463 134.629 965.097 140.696 959.73 146.296L1016.43 238.696H954.83L931.73 198.446C930.563 196.579 929.28 194.246 927.88 191.446C926.48 188.646 925.08 185.729 923.68 182.696L915.63 198.446L891.48 238.696H830.58Z" fill="black"/>
<path d="M812.424 157.846C812.424 165.312 813.007 172.312 814.174 178.846C815.574 185.146 817.09 191.446 818.724 197.746C820.357 203.812 821.874 210.112 823.274 216.646C824.674 223.179 825.374 230.179 825.374 237.646C825.374 262.146 818.49 280.929 804.724 293.996C790.957 307.296 772.174 313.946 748.374 313.946C737.641 313.946 726.44 312.662 714.774 310.096C703.107 307.529 691.674 303.912 680.474 299.246L693.424 256.546C703.69 260.046 712.674 262.729 720.374 264.596C728.074 266.696 736.241 267.746 744.874 267.746C754.207 267.746 761.674 265.062 767.274 259.696C773.107 254.329 776.024 246.629 776.024 236.596C776.024 231.929 775.674 227.729 774.974 223.996C774.274 220.029 772.991 215.712 771.124 211.046C765.057 221.546 756.774 229.129 746.274 233.796C735.774 238.462 724.457 240.796 712.324 240.796C703.224 240.796 695.407 239.396 688.874 236.596C682.574 233.562 677.324 229.479 673.124 224.346C669.157 218.979 666.241 212.562 664.374 205.096C662.741 197.629 661.924 189.229 661.924 179.896V62.9957H717.574V172.546C717.574 180.712 718.507 187.362 720.374 192.496C722.474 197.396 726.207 199.846 731.574 199.846C734.607 199.846 737.64 198.796 740.674 196.696C743.94 194.362 746.857 191.212 749.424 187.246C751.99 183.046 754.09 178.029 755.724 172.196C757.357 166.362 758.174 159.829 758.174 152.596V62.9957H813.824L812.424 157.846Z" fill="black"/>
<path d="M611.721 113.396C609.154 113.396 606.354 114.096 603.321 115.496C600.287 116.896 597.371 119.112 594.571 122.146C591.771 124.946 589.437 128.679 587.571 133.346C585.704 137.779 584.771 143.146 584.771 149.446V238.696H529.471V147.696C529.471 133.696 528.421 122.146 526.321 113.046C524.454 103.712 522.237 96.129 519.671 90.2957C516.871 83.7624 513.721 78.5123 510.221 74.5457L554.671 60.5457C556.537 62.879 558.521 65.5624 560.621 68.5957C562.254 71.1624 564.004 74.429 565.871 78.3957C567.737 82.3623 569.254 86.9124 570.421 92.0457C576.254 80.8457 583.137 72.7957 591.071 67.8957C599.237 62.9957 608.804 60.5457 619.771 60.5457C624.671 60.5457 628.987 61.0124 632.721 61.9457C636.687 62.6457 639.954 63.4624 642.521 64.3957L628.171 117.246C626.537 116.312 624.321 115.496 621.521 114.796C618.954 113.862 615.687 113.396 611.721 113.396Z" fill="black"/>
<path d="M370.71 64.3957H399.41L405.36 28.3457L453.31 17.8457V64.3957H494.61L487.96 104.996H453.31V183.046C453.31 193.312 458.677 198.446 469.41 198.446C475.243 198.446 480.843 197.862 486.21 196.696C489.01 195.996 491.81 195.296 494.61 194.596L504.06 231.696C499.394 233.329 492.86 235.196 484.46 237.296C476.293 239.162 466.26 240.096 454.36 240.096C436.86 240.096 423.093 236.479 413.06 229.246C403.26 222.012 398.36 209.762 398.36 192.496V104.996H370.71V64.3957Z" fill="black"/>
<path d="M286.836 62.9957H342.136V154.346C342.136 168.346 343.069 180.012 344.936 189.346C346.803 198.679 349.019 206.146 351.586 211.746C354.386 218.512 357.653 223.762 361.386 227.496L316.936 241.496C314.836 239.396 312.736 236.712 310.636 233.446C308.769 230.879 306.903 227.612 305.036 223.646C303.169 219.446 301.653 214.662 300.486 209.296C294.419 220.262 286.019 228.312 275.286 233.446C264.786 238.346 253.353 240.796 240.986 240.796C231.886 240.796 224.069 239.396 217.536 236.596C211.236 233.562 205.986 229.479 201.786 224.346C197.819 218.979 194.903 212.562 193.036 205.096C191.403 197.629 190.586 189.229 190.586 179.896V62.9957H246.236V172.546C246.236 180.712 247.169 187.362 249.036 192.496C251.136 197.396 254.869 199.846 260.236 199.846C266.769 199.846 272.836 195.529 278.436 186.896C284.036 178.029 286.836 165.896 286.836 150.496V62.9957Z" fill="black"/>
<path d="M82.95 59.4957C110.717 59.4957 130.9 67.429 143.5 83.2957C156.333 99.1624 162.75 121.096 162.75 149.096C162.75 162.396 161 174.762 157.5 186.196C154.233 197.396 149.1 207.196 142.1 215.596C135.333 223.762 126.7 230.296 116.2 235.196C105.933 239.862 93.9167 242.196 80.15 242.196C66.15 242.196 54.0167 240.212 43.75 236.246C33.7167 232.046 25.4333 226.096 18.9 218.396C12.6 210.696 7.81667 201.362 4.55 190.396C1.51667 179.196 0 166.712 0 152.946C0 139.646 1.63333 127.279 4.9 115.846C8.4 104.412 13.5333 94.6124 20.3 86.4457C27.3 78.0457 35.9333 71.5124 46.2 66.8457C56.7 61.9457 68.95 59.4957 82.95 59.4957ZM79.8 101.146C75.6 101.146 72.1 102.429 69.3 104.996C66.5 107.329 64.2833 110.712 62.65 115.146C61.25 119.346 60.2 124.362 59.5 130.196C59.0333 136.029 58.8 142.329 58.8 149.096C58.8 156.096 59.15 162.746 59.85 169.046C60.55 175.346 61.7167 180.829 63.35 185.496C65.2167 190.162 67.7833 193.896 71.05 196.696C74.3167 199.262 78.4 200.546 83.3 200.546C87.5 200.546 91 199.262 93.8 196.696C96.6 194.129 98.7 190.746 100.1 186.546C101.733 182.112 102.783 176.979 103.25 171.146C103.95 165.312 104.3 159.129 104.3 152.596C104.3 145.362 103.95 138.712 103.25 132.646C102.55 126.346 101.267 120.862 99.4 116.196C97.7667 111.529 95.3167 107.912 92.05 105.346C88.7833 102.546 84.7 101.146 79.8 101.146Z" fill="black"/>
<path d="M1138.95 15.921L1121.87 49.5563L1160.26 46.398L1159.44 92.657L1120.39 87.3826L1135.57 123.45L1090.26 136.384L1083.75 99.0039L1055.07 123.575L1028.68 84.5447L1063.49 66.6733L1030.19 45.6121L1059.29 9.64792L1086.34 36.628L1095.21 0L1138.95 15.921Z" fill="black"/>
</svg>
